Coordinates
version=1
nRows=9
nColumns=36
inDegrees=yes

Units are S.I. units (second, meters, Newtons, ...)
If the header above contains a line with 'inDegrees', this indicates whether rotational values are in degrees (yes) or radians (no).

endheader
time	pelvis_tilt	pelvis_list	pelvis_rotation	pelvis_tx	pelvis_ty	pelvis_tz	hip_flexion_r	hip_adduction_r	hip_rotation_r	knee_angle_r	knee_angle_r_beta	ankle_angle_r	subtalar_angle_r	mtp_angle_r	hip_flexion_l	hip_adduction_l	hip_rotation_l	knee_angle_l	knee_angle_l_beta	ankle_angle_l	subtalar_angle_l	mtp_angle_l	lumbar_extension	lumbar_bending	lumbar_rotation	arm_flex_r	arm_add_r	arm_rot_r	elbow_flex_r	pro_sup_r	arm_flex_l	arm_add_l	arm_rot_l	elbow_flex_l	pro_sup_l
     14.68333330	      4.31647827	     -1.20203950	     -1.74247202	      0.48486524	      1.03088681	      0.73634969	     -9.51028543	     -0.97299309	      6.16292363	     26.98766435	      0.47102360	      2.31825889	    -19.36704261	     -7.49999987	     16.18290079	     -1.28143867	      0.93883260	     15.17975858	      0.26493677	     -3.35819505	     -4.66377074	     -7.49999987	    -17.37433417	     -1.75061928	      6.14949014	      7.52226229	    -19.09167773	      2.34705802	     42.91173945	     83.39178128	      4.35985285	     -9.52058450	     16.56885172	     14.89853784	     91.21244269
     14.70000000	      3.87077905	     -0.40144401	     -2.31441538	      0.48317980	      1.03065169	      0.73493634	     -4.63261525	     -2.04538235	      6.51363662	     35.45948114	      0.61888470	     -2.27463340	    -22.31258626	     -7.49999987	     15.94483042	     -0.51031074	      0.00301425	     16.26005081	      0.28379142	     -2.92388997	     -4.74713567	     -7.49999987	    -17.09803381	     -2.93951156	      6.08792588	      7.20322440	    -18.45893877	      2.37768150	     41.83013000	     83.53991634	      5.17643065	    -10.06666028	     16.36482888	     15.60682232	     91.27320659
     14.71666670	      3.62850873	      0.41761855	     -2.92645944	      0.48124478	      1.03015600	      0.73275694	     -0.12751722	     -3.04231494	      6.90128643	     43.09932555	      0.75222514	     -6.42764455	    -24.24218817	     -7.49999987	     15.23652178	      0.35339003	     -0.90286765	     16.62742895	      0.29020338	     -2.40208137	     -5.00900732	     -7.49999987	    -17.00552449	     -4.14140244	      5.99466166	      6.98482964	    -17.82041273	      2.51700337	     40.56345004	     83.85544842	      6.13101429	    -10.64065937	     16.41137296	     16.39544926	     91.53585789
     14.73333330	      3.60118350	      1.02301011	     -3.50709611	      0.47913612	      1.02999384	      0.73030399	      3.69800122	     -3.70614070	      7.23757785	     49.41105247	      0.86238555	     -9.42247934	    -25.18755021	     -7.49999987	     14.10940638	      1.09173136	     -1.66442203	     16.46700211	      0.28740340	     -1.92878100	     -5.43229508	     -7.49999987	    -17.09861880	     -5.08212209	      5.96729843	      6.66263022	    -17.27703900	      2.65810077	     39.24120977	     84.23671715	      7.23238285	    -11.15372057	     16.53270613	     17.25988697	     91.83732407
     14.75000000	      3.67872383	      1.36473303	     -3.96501323	      0.47766106	      1.03177892	      0.72720614	      6.85475627	     -4.02764705	      7.42458591	     54.40211339	      0.94949600	    -11.25534198	    -25.36642550	     -7.49999987	     12.76908212	      1.63213497	     -2.18497982	     16.15154166	      0.28189758	     -1.44529935	     -6.00105076	     -7.49999987	    -17.19961110	     -5.65583338	      5.86514907	      6.24936093	    -16.74131853	      2.61972006	     37.86421897	     84.74199271	      8.37706971	    -11.59886951	     16.70038568	     18.14335085	     92.20043087
     14.76666670	      4.07580910	      1.45863845	     -4.24332356	      0.47715700	      1.03603092	      0.72364504	      9.10789700	     -4.08106060	      7.42680603	     58.20697310	      1.01590333	    -12.08372918	    -25.05992160	     -7.49999987	     11.04279120	      1.99189697	     -2.33433911	     15.94626421	      0.27831481	     -0.70270236	     -6.53604634	     -7.49999987	    -17.71087270	     -5.89959469	      5.69024400	      5.67313713	    -16.42006584	      2.61619998	     37.06753915	     84.82280940	      9.68107624	    -11.85885026	     16.63106037	     18.87735547	     92.19258175
     14.78333330	      4.37114977	      1.42266656	     -4.45540801	      0.47672497	      1.03937788	      0.72164112	     11.08741012	     -3.90580349	      7.39190349	     61.14486329	      1.06717919	    -11.85801449	    -24.27737398	     -7.49999987	      9.39450476	      2.20795402	     -2.32015006	     15.83502120	      0.27637326	      0.13018329	     -7.11413598	     -7.49999987	    -17.98527815	     -5.93711424	      5.78628190	      4.99172340	    -16.11587865	      2.36970183	     35.78839040	     84.92192876	     11.03551924	    -12.05234131	     16.62606628	     19.78123479	     92.24427819
     14.80000000	      4.69939638	      1.21466547	     -4.47847057	      0.47546759	      1.04032615	      0.72128640	     12.69165426	     -3.52355912	      7.06520310	     63.26517313	      1.10418557	    -10.28529630	    -22.64019179	     -7.49999987	      7.76852760	      2.25670748	     -2.03163967	     15.84408075	      0.27653138	      1.25862363	     -7.52382380	     -7.49999987	    -18.37034645	     -5.71178806	      5.78712078	      4.43013525	    -15.75399939	      1.77667509	     34.29828760	     85.02131249	     12.45095258	    -12.28972398	     16.77304668	     20.74843918	     92.30614643
     14.81666670	      5.03491722	      0.88758032	     -4.36916909	      0.47537139	      1.04002473	      0.72032520	     13.96410958	     -2.94574519	      6.56079258	     64.54912258	      1.12659472	     -8.25394743	    -21.11916551	     -7.49999987	      6.13604356	      2.15011653	     -1.65825951	     15.82804026	      0.27625142	      2.60748173	     -7.56208196	     -7.49999987	    -18.83784649	     -5.33566158	      5.71828573	      3.82486669	    -15.29693483	      0.69787760	     32.84374920	     85.58386903	     14.02177116	    -12.65055211	     17.53518582	     21.49813290	     92.10929286
